<?xml version="1.0" standalone="no"?>
<!DOCTYPE svg PUBLIC "-//W3C//DTD SVG 20010904//EN"
 "http://www.w3.org/TR/2001/REC-SVG-20010904/DTD/svg10.dtd">
<svg version="1.0" xmlns="http://www.w3.org/2000/svg"
 width="1920.000000pt" height="1080.000000pt" viewBox="0 0 1920.000000 1080.000000"
 preserveAspectRatio="xMidYMid meet">

<g transform="translate(0.000000,1080.000000) scale(0.100000,-0.100000)"
fill="#000000" stroke="none">
<path d="M8432 5918 l3 -423 165 -3 c269 -5 389 23 487 111 122 111 160 346
82 512 -31 66 -90 128 -156 162 -90 48 -184 63 -398 63 l-185 0 2 -422z m415
219 c68 -36 97 -111 91 -236 -8 -156 -77 -231 -214 -231 l-44 0 0 243 c0 134
2 246 5 248 9 10 131 -9 162 -24z"/>
<path d="M9317 6333 c-4 -3 -7 -190 -7 -413 0 -333 3 -410 14 -419 9 -8 105
-11 332 -9 l319 3 3 84 c2 61 -1 87 -10 92 -7 5 -100 9 -206 9 l-193 0 3 73 3
72 123 3 123 3 -3 87 -3 87 -120 5 -120 5 0 70 0 70 195 5 195 5 3 88 3 87
-324 0 c-178 0 -327 -3 -330 -7z"/>
<path d="M10056 6331 c-9 -13 264 -814 282 -828 18 -15 209 -18 231 -4 17 11
290 810 284 829 -6 17 -199 17 -209 0 -5 -7 -40 -125 -80 -263 -39 -137 -75
-250 -80 -250 -4 0 -42 113 -85 251 -42 139 -80 257 -83 263 -9 13 -252 15
-260 2z"/>
<path d="M7330 5400 c-72 -18 -132 -51 -186 -102 -93 -87 -134 -195 -134 -348
0 -286 178 -480 440 -480 172 0 320 91 388 238 43 95 16 120 -150 138 l-56 7
-20 -39 c-46 -90 -131 -131 -201 -97 -20 10 -42 30 -49 45 -53 112 -33 353 33
408 26 22 98 19 124 -4 12 -11 27 -39 33 -64 7 -29 18 -46 32 -51 35 -12 247
5 257 20 24 36 -27 163 -91 226 -23 24 -71 57 -107 75 -59 29 -75 32 -171 34
-59 2 -123 -1 -142 -6z m275 -55 c97 -42 164 -112 190 -198 l13 -45 -45 -6
c-25 -3 -72 -6 -103 -6 l-57 0 -17 43 c-24 65 -56 90 -118 94 -59 5 -104 -16
-134 -62 -41 -63 -56 -231 -31 -351 23 -109 65 -149 156 -149 76 0 138 37 172
99 26 49 30 51 99 36 98 -22 90 -17 78 -53 -29 -83 -105 -163 -197 -205 -49
-23 -69 -26 -161 -27 -93 0 -111 3 -162 27 -160 75 -249 244 -235 446 9 135
65 250 149 309 22 15 70 38 107 50 56 20 80 23 161 20 59 -3 110 -11 135 -22z"/>
<path d="M10797 5399 c-141 -33 -258 -151 -302 -304 -21 -72 -24 -219 -6 -295
49 -203 215 -330 431 -330 206 0 356 103 421 292 28 79 31 254 7 334 -47 150
-150 257 -288 298 -58 17 -199 20 -263 5z m307 -68 c123 -60 196 -170 215
-322 9 -67 1 -177 -17 -234 -31 -101 -102 -182 -200 -228 -63 -30 -74 -32
-182 -32 -110 0 -118 1 -182 33 -83 41 -158 120 -189 200 -27 69 -37 232 -20
312 22 104 88 201 169 252 69 42 140 58 244 55 85 -3 105 -8 162 -36z"/>
<path d="M10850 5212 c-23 -12 -43 -35 -60 -68 -24 -46 -25 -58 -25 -209 0
-147 2 -163 23 -202 34 -64 101 -92 175 -72 90 23 119 90 119 273 0 161 -25
240 -85 276 -40 25 -102 25 -147 2z m141 -48 c36 -32 51 -114 47 -252 -2 -106
-6 -133 -24 -162 -43 -75 -148 -72 -188 5 -18 35 -21 57 -21 180 0 157 15 213
64 241 32 18 96 12 122 -12z"/>
<path d="M11670 5396 c-104 -30 -187 -93 -225 -171 -28 -58 -27 -176 2 -230
51 -96 135 -146 318 -191 118 -29 158 -52 136 -78 -7 -9 -30 -20 -50 -26 -84
-23 -151 -6 -220 56 -39 35 -56 45 -74 40 -31 -8 -161 -108 -165 -127 -5 -25
40 -82 92 -117 85 -57 171 -77 326 -77 160 1 218 18 298 90 69 62 94 120 94
213 0 62 -5 83 -29 130 -44 87 -103 122 -286 171 -162 44 -167 46 -167 66 0
29 47 48 109 43 50 -3 67 -10 107 -41 26 -20 53 -37 59 -37 17 0 162 107 168
124 8 20 -31 76 -72 103 -69 47 -139 65 -261 69 -76 2 -130 -1 -160 -10z m303
-50 c58 -18 142 -73 142 -93 0 -7 -27 -32 -60 -57 l-60 -45 -25 24 c-56 54
-173 72 -244 38 -62 -29 -66 -97 -8 -127 16 -8 86 -29 155 -47 212 -53 278
-108 285 -241 5 -88 -15 -143 -72 -196 -109 -101 -348 -121 -527 -44 -52 23
-119 77 -119 98 0 12 109 94 125 94 4 0 27 -17 51 -39 64 -56 151 -74 249 -51
43 10 85 49 85 80 0 10 -10 31 -22 45 -19 21 -49 33 -153 59 -149 37 -195 57
-240 101 -143 143 -69 350 145 410 70 19 214 15 293 -9z"/>
<path d="M8183 5388 c-16 -20 -303 -838 -303 -862 0 -40 18 -46 137 -46 l112
0 15 28 c7 15 22 53 32 85 l18 57 126 0 126 0 23 -72 c13 -40 28 -79 33 -85 8
-9 50 -13 149 -13 138 0 140 0 150 24 10 21 -9 82 -136 443 -81 230 -154 426
-163 436 -13 15 -35 17 -162 17 -106 0 -150 -4 -157 -12z m301 -60 c8 -18 72
-199 144 -403 72 -203 133 -378 137 -387 7 -17 -3 -18 -113 -18 l-120 0 -28
83 -29 82 -155 0 -155 0 -29 -82 -30 -83 -93 0 c-51 0 -93 4 -93 8 0 5 65 192
145 417 80 225 145 410 145 412 0 2 59 3 131 3 l130 0 13 -32z"/>
<path d="M8302 5117 c-20 -23 -83 -212 -80 -237 3 -24 5 -25 89 -28 122 -4
124 -1 73 145 -38 113 -61 146 -82 120z m46 -143 c12 -34 22 -66 22 -73 0 -7
-21 -11 -56 -11 -49 0 -55 2 -49 18 3 9 16 45 28 79 12 34 24 59 28 55 3 -4
15 -34 27 -68z"/>
<path d="M8873 5389 c-18 -18 -19 -879 -1 -897 8 -8 54 -12 139 -12 103 0 131
3 143 16 13 13 16 43 16 175 l0 160 32 -3 c32 -3 33 -4 91 -163 32 -88 65
-166 74 -172 23 -18 274 -18 291 -1 22 22 13 52 -62 218 l-74 164 40 27 c106
71 148 219 94 335 -29 62 -81 107 -160 136 -56 20 -83 22 -336 25 -213 4 -278
2 -287 -8z m548 -39 c171 -33 254 -154 204 -301 -18 -51 -50 -89 -106 -124
-22 -14 -39 -33 -39 -43 0 -10 34 -93 75 -185 41 -91 75 -169 75 -172 0 -3
-54 -5 -119 -5 l-120 0 -19 53 c-11 28 -36 99 -57 157 -49 136 -54 142 -124
138 l-56 -3 -5 -170 -5 -170 -112 -3 -113 -3 0 421 0 420 234 0 c128 0 257 -5
287 -10z"/>
<path d="M9152 5220 c-22 -9 -23 -14 -20 -107 l3 -98 103 -3 c102 -3 103 -3
132 27 47 46 38 130 -18 167 -29 19 -166 29 -200 14z m188 -60 c11 -11 20 -31
20 -45 0 -47 -31 -65 -115 -65 l-75 0 0 65 0 65 75 0 c62 0 79 -4 95 -20z"/>
<path d="M9752 5388 c-17 -17 -17 -879 0 -896 15 -15 655 -17 678 -2 12 7 15
31 15 109 0 55 -4 103 -8 108 -5 4 -94 9 -198 11 l-189 3 0 320 c0 202 -4 327
-10 340 -10 17 -22 19 -143 19 -90 0 -137 -4 -145 -12z m258 -367 l0 -339 23
-6 c12 -3 100 -6 195 -6 l172 0 0 -75 0 -75 -310 0 -310 0 0 420 0 420 115 0
115 0 0 -339z"/>
</g>
</svg>
