<?xml version="1.0" standalone="no"?>
<!DOCTYPE svg PUBLIC "-//W3C//DTD SVG 20010904//EN"
 "http://www.w3.org/TR/2001/REC-SVG-20010904/DTD/svg10.dtd">
<svg version="1.0" xmlns="http://www.w3.org/2000/svg"
 width="500.000000pt" height="500.000000pt" viewBox="0 0 500.000000 500.000000"
 preserveAspectRatio="xMidYMid meet">

<g transform="translate(0.000000,500.000000) scale(0.100000,-0.100000)"
fill="red" stroke="none">
<path d="M2670 4150 l0 -110 25 0 25 0 0 110 0 110 -25 0 -25 0 0 -110z"/>
<path d="M3200 4226 c0 -29 -3 -33 -20 -29 -65 17 -107 -48 -77 -120 l16 -36
65 1 66 1 0 108 0 109 -25 0 c-22 0 -25 -4 -25 -34z m-16 -62 c22 -9 22 -80 0
-88 -35 -14 -56 33 -34 75 12 21 12 21 34 13z"/>
<path d="M1430 4145 l0 -105 56 0 c48 0 59 4 85 29 24 24 29 38 29 76 0 38 -5
52 -29 76 -26 25 -37 29 -85 29 l-56 0 0 -105z m108 53 c7 -7 12 -30 12 -53 0
-48 -13 -65 -52 -65 -28 0 -28 0 -28 65 0 65 0 65 28 65 15 0 33 -5 40 -12z"/>
<path d="M1651 4174 c-12 -15 -21 -39 -21 -54 0 -15 9 -39 21 -54 17 -22 28
-26 70 -26 42 0 49 3 49 20 0 16 -5 19 -30 14 -29 -6 -60 8 -60 27 0 5 23 9
50 9 48 0 50 1 50 28 0 62 -89 87 -129 36z m83 -19 c4 -11 -2 -15 -24 -15 -29
0 -38 9 -23 23 12 12 41 7 47 -8z"/>
<path d="M1816 4184 c-9 -8 -16 -18 -16 -20 0 -17 25 -46 50 -59 44 -23 38
-39 -11 -31 -35 6 -40 4 -37 -11 2 -14 15 -19 49 -21 84 -5 107 55 37 93 -48
25 -49 39 -3 31 31 -6 35 -4 35 14 0 17 -6 20 -44 20 -27 0 -51 -6 -60 -16z"/>
<path d="M1971 4174 c-12 -15 -21 -39 -21 -54 0 -15 9 -39 21 -54 17 -22 28
-26 70 -26 42 0 49 3 49 20 0 16 -5 19 -30 14 -29 -6 -60 8 -60 27 0 5 23 9
50 9 48 0 50 1 50 28 0 62 -89 87 -129 36z m83 -19 c4 -11 -2 -15 -24 -15 -29
0 -38 9 -23 23 12 12 41 7 47 -8z"/>
<path d="M2130 4119 c0 -78 0 -79 25 -79 24 0 25 3 25 54 0 35 5 58 15 66 26
22 45 -5 45 -66 0 -47 2 -54 20 -54 18 0 20 7 20 69 0 44 -5 72 -13 79 -7 6
-41 11 -75 10 l-62 -1 0 -78z"/>
<path d="M2310 4193 c0 -4 12 -41 26 -81 25 -67 29 -73 52 -70 21 2 30 14 49
63 37 97 37 95 10 95 -18 0 -27 -7 -31 -25 -3 -13 -11 -37 -17 -52 l-11 -28
-17 50 c-13 37 -23 51 -39 53 -12 2 -22 0 -22 -5z"/>
<path d="M2504 4179 c-24 -26 -23 -92 1 -119 12 -13 31 -20 57 -20 51 0 78 27
78 80 0 53 -27 80 -78 80 -27 0 -45 -7 -58 -21z m70 -15 c23 -9 22 -80 -1 -88
-33 -13 -58 55 -31 82 14 14 12 14 32 6z"/>
<path d="M2751 4173 c6 -16 20 -52 31 -81 17 -47 23 -53 45 -50 21 3 29 15 54
78 16 41 29 76 29 78 0 1 -11 2 -24 2 -21 0 -27 -9 -44 -57 -11 -32 -21 -50
-21 -41 -1 10 -8 36 -17 58 -13 31 -22 40 -40 40 -22 0 -23 -2 -13 -27z"/>
<path d="M2941 4174 c-12 -15 -21 -39 -21 -54 0 -15 9 -39 21 -54 17 -22 28
-26 70 -26 42 0 49 3 49 20 0 16 -5 19 -30 14 -29 -6 -60 8 -60 27 0 5 23 9
50 9 48 0 50 1 50 28 0 62 -89 87 -129 36z m83 -19 c4 -11 -2 -15 -24 -15 -29
0 -38 9 -23 23 12 12 41 7 47 -8z"/>
<path d="M3300 4180 c-26 -26 -26 -80 1 -114 16 -20 29 -26 58 -26 49 0 76 28
76 80 0 52 -27 80 -77 80 -25 0 -45 -7 -58 -20z m78 -22 c30 -30 4 -96 -32
-82 -19 7 -23 80 -3 87 19 8 22 8 35 -5z"/>
<path d="M3470 4120 c0 -79 0 -80 25 -80 24 0 25 3 25 55 0 54 1 56 30 62 21
4 30 11 30 24 0 22 -39 26 -58 7 -9 -9 -12 -9 -12 0 0 7 -9 12 -20 12 -18 0
-20 -7 -20 -80z"/>
<path d="M2252 3872 l-22 -58 -65 -16 c-58 -14 -64 -14 -53 0 12 13 10 14 -11
3 -46 -25 -102 33 -74 78 11 18 63 28 63 12 0 -6 5 -11 10 -11 7 0 7 7 0 21
-22 40 -100 0 -100 -50 0 -35 25 -69 52 -73 15 -2 -10 -16 -74 -41 -304 -120
-570 -374 -713 -681 -86 -184 -120 -342 -119 -561 1 -351 111 -636 349 -899
188 -209 429 -346 714 -408 141 -31 396 -31 538 0 258 56 461 164 653 349 104
99 172 184 234 291 21 34 41 62 47 62 5 0 9 6 7 13 -5 28 13 55 32 50 21 -6
27 -28 10 -38 -12 -7 -4 -25 11 -25 5 0 9 12 9 26 0 22 3 24 23 18 12 -3 23
-7 24 -8 6 -5 -11 -46 -18 -46 -5 0 -9 -4 -9 -10 0 -20 21 -9 30 15 19 49 24
78 12 71 -16 -10 -104 15 -99 28 3 6 13 35 23 63 l19 53 40 -7 c22 -3 42 -10
43 -15 5 -13 22 1 22 18 0 8 -4 13 -9 9 -6 -3 -28 -2 -51 1 -40 7 -41 8 -34
38 3 17 8 33 10 35 2 2 24 0 49 -6 39 -9 45 -8 45 6 0 12 -12 17 -56 19 -68 4
-84 -8 -84 -59 0 -21 -11 -69 -25 -106 -137 -364 -439 -655 -805 -777 -143
-48 -269 -68 -430 -68 -495 -3 -939 273 -1164 722 -97 194 -136 362 -136 590
0 163 18 275 66 420 68 203 180 377 341 531 102 96 191 159 319 223 99 49 253
101 333 112 32 4 50 11 48 18 -3 6 -10 10 -16 9 -6 -2 -11 4 -11 12 0 10 10
15 30 15 27 0 35 -8 31 -32 0 -5 8 -8 19 -8 18 0 17 4 -10 62 -17 35 -34 64
-39 66 -4 1 -18 -24 -29 -56z m38 8 c9 -17 8 -20 -9 -20 -14 0 -18 5 -14 20 3
11 7 20 9 20 2 0 8 -9 14 -20z"/>
<path d="M2472 3879 c-2 -29 -8 -61 -13 -71 -8 -15 -6 -18 18 -17 15 0 23 3
17 5 -12 5 -7 54 5 54 4 0 15 -16 24 -35 10 -21 24 -35 34 -35 12 0 14 3 6 8
-7 4 -16 19 -21 32 -7 19 -5 28 11 40 16 14 18 20 8 38 -6 12 -19 22 -29 22
-9 0 -26 3 -37 6 -18 4 -20 -1 -23 -47z m63 6 c0 -13 -8 -21 -22 -23 -24 -3
-28 4 -17 33 9 22 39 14 39 -10z"/>
<path d="M2695 3879 c9 -13 -15 -101 -29 -111 -7 -4 -5 -9 4 -12 8 -2 29 -9
47 -14 30 -10 43 -7 43 9 0 4 -8 5 -17 3 -37 -9 -47 9 -33 65 6 28 17 51 23
52 7 0 3 4 -8 9 -28 12 -37 12 -30 -1z"/>
<path d="M2891 3774 c-12 -15 -21 -35 -21 -46 0 -25 44 -68 70 -68 28 0 70 43
70 73 0 31 -39 67 -72 67 -17 0 -34 -10 -47 -26z m81 -1 c22 -20 23 -42 2 -71
-34 -49 -95 -13 -73 45 17 45 41 54 71 26z"/>
<path d="M3121 3672 c-6 -12 -5 -25 5 -42 7 -14 13 -33 14 -43 0 -26 -32 -18
-46 11 -8 16 -14 20 -19 12 -11 -18 26 -51 54 -48 30 4 39 30 21 64 -7 12 -10
30 -7 38 9 22 37 9 37 -17 0 -16 3 -18 12 -9 9 9 7 16 -7 32 -22 25 -51 26
-64 2z"/>
<path d="M3379 3428 c-29 -30 -43 -52 -38 -60 5 -8 13 -5 27 13 l20 24 27 -25
26 -25 -24 -21 c-16 -14 -22 -25 -16 -31 14 -14 107 78 96 94 -7 9 -14 7 -27
-10 l-18 -22 -26 24 c-24 23 -25 26 -10 42 9 10 21 16 25 13 14 -8 10 13 -3
22 -9 6 -27 -6 -59 -38z"/>
<path d="M3584 3272 c5 -9 -84 -69 -96 -64 -13 4 -9 -7 18 -48 15 -23 31 -37
39 -33 10 3 7 11 -13 29 -26 23 -26 24 -8 39 14 11 23 12 33 4 7 -6 10 -15 7
-20 -6 -10 9 -12 19 -2 4 3 0 14 -8 23 -14 15 -14 18 0 30 19 16 45 -3 45 -33
0 -16 3 -18 12 -9 8 8 5 21 -16 52 -14 22 -29 40 -32 40 -3 0 -3 -4 0 -8z"/>
<path d="M2042 3109 c-167 -29 -308 -172 -357 -364 -21 -80 -20 -236 0 -317
34 -130 134 -266 233 -317 110 -56 267 -64 427 -23 l70 18 3 67 c2 42 -1 67
-8 67 -5 0 -10 -5 -10 -10 0 -24 -93 -109 -143 -131 -78 -34 -194 -33 -262 3
-147 77 -238 264 -238 488 1 234 85 410 234 486 46 24 66 27 136 27 70 0 90
-4 140 -29 47 -23 62 -38 81 -74 47 -95 21 -156 -115 -266 -101 -81 -143 -139
-146 -202 -1 -41 22 -89 49 -99 20 -8 30 5 16 19 -16 16 -15 53 2 87 8 15 48
56 88 91 144 124 181 179 182 272 1 48 -4 63 -30 100 -62 88 -207 133 -352
107z"/>
<path d="M2508 3085 c65 -28 67 -41 67 -495 0 -454 -2 -467 -67 -495 -31 -13
-23 -14 107 -14 124 0 137 1 110 13 -54 23 -59 48 -63 298 l-4 227 26 26 c14
14 35 25 47 25 12 0 62 -18 112 -41 49 -22 112 -43 139 -46 64 -8 121 17 142
62 22 45 20 53 -4 22 -32 -41 -72 -42 -184 -8 -141 44 -204 43 -255 -3 l-23
-21 4 190 c4 207 8 223 61 255 l32 20 -140 0 c-130 -1 -138 -2 -107 -15z"/>
<path d="M3106 3085 c58 -26 59 -31 62 -475 3 -460 0 -483 -58 -512 -35 -18
-35 -18 105 -18 140 0 140 0 105 18 -57 28 -59 41 -59 492 0 451 2 464 59 492
35 18 35 18 -105 17 -126 -1 -137 -2 -109 -14z"/>
<path d="M3665 3054 c-22 -13 -48 -24 -57 -24 -18 0 -24 -11 -12 -22 3 -3 26
5 50 19 l46 26 -31 -61 c-17 -34 -31 -64 -31 -66 0 -4 116 41 129 50 1 2 0 8
-4 14 -5 9 -10 9 -14 1 -4 -5 -24 -17 -45 -26 l-39 -16 32 57 c18 31 29 60 24
64 -4 4 -26 -4 -48 -16z"/>
<path d="M3755 2828 c-27 -9 -58 -15 -67 -12 -14 4 -16 1 -11 -13 11 -32 14
-33 29 -18 16 16 44 20 44 7 0 -5 -11 -19 -25 -32 -14 -13 -25 -29 -25 -37 0
-20 10 -16 32 12 15 20 23 23 38 15 29 -16 50 -2 49 34 -1 59 -8 63 -64 44z
m55 -38 c0 -22 -23 -33 -39 -17 -16 16 -13 35 7 40 23 5 32 -1 32 -23z"/>
<path d="M3851 2623 c-1 -6 -27 -14 -61 -18 -53 -6 -60 -10 -60 -28 0 -15 3
-18 8 -9 5 8 33 14 70 15 34 1 62 4 61 7 -2 14 -18 43 -18 33z"/>
<path d="M3761 2434 c-12 -15 -21 -32 -21 -38 0 -6 -9 -17 -20 -24 -11 -7 -20
-20 -20 -29 0 -14 3 -13 23 5 23 22 23 22 40 2 22 -26 78 -27 100 -2 25 27 22
78 -5 96 -34 24 -73 20 -97 -10z m90 -4 c44 -24 13 -80 -43 -80 -30 0 -48 17
-48 47 0 37 50 55 91 33z"/>
</g>
</svg>
