<?xml version="1.0" standalone="no"?>
<!DOCTYPE svg PUBLIC "-//W3C//DTD SVG 20010904//EN"
 "http://www.w3.org/TR/2001/REC-SVG-20010904/DTD/svg10.dtd">
<svg version="1.0" xmlns="http://www.w3.org/2000/svg"
 width="500.000000pt" height="500.000000pt" viewBox="0 0 500.000000 500.000000"
 preserveAspectRatio="xMidYMid meet">

<g transform="translate(0.000000,500.000000) scale(0.100000,-0.100000)"
fill="red" stroke="none">
<path d="M0 2500 l0 -2500 2500 0 2500 0 0 2500 0 2500 -2500 0 -2500 0 0
-2500z m2520 1490 c0 -5 -5 -10 -11 -10 -5 0 -7 5 -4 10 3 6 8 10 11 10 2 0 4
-4 4 -10z m120 -111 c0 -5 -7 -9 -15 -9 -15 0 -20 12 -9 23 8 8 24 -1 24 -14z
m-280 -14 c0 -8 -7 -15 -15 -15 -26 0 -18 20 13 29 1 1 2 -6 2 -14z m1 -78
c-13 -13 -26 -3 -16 12 3 6 11 8 17 5 6 -4 6 -10 -1 -17z m244 -6 c3 -6 -3
-14 -12 -20 -14 -8 -8 -10 30 -11 36 0 47 4 47 16 0 9 7 14 17 12 9 -2 15 -7
12 -13 -2 -5 -7 -9 -11 -7 -5 1 -8 -2 -8 -7 0 -4 24 -11 53 -14 87 -11 226
-55 333 -107 122 -59 238 -144 335 -244 57 -59 76 -73 86 -64 7 6 16 8 20 5 3
-4 -2 -9 -11 -13 -9 -3 -13 -11 -9 -18 3 -6 -7 2 -24 17 -17 15 -36 27 -44 25
-8 -2 -14 5 -14 14 0 10 -18 35 -40 58 -32 32 -41 37 -48 25 -4 -8 -14 -15
-21 -15 -17 0 -29 27 -16 35 6 4 10 10 10 15 0 13 -95 80 -114 80 -9 0 -16 4
-16 10 0 18 -74 48 -105 42 -26 -4 -28 -3 -17 10 10 13 5 18 -35 36 -72 31
-103 37 -103 21 0 -9 -7 -6 -18 8 -36 46 -324 76 -497 52 -70 -10 -229 -49
-223 -55 2 -1 48 4 103 11 55 8 126 15 157 15 35 0 58 5 61 13 4 9 8 9 15 -2
12 -17 135 -36 140 -21 6 17 41 11 51 -9 6 -10 23 -21 38 -24 15 -4 38 -9 51
-13 17 -5 21 -3 16 9 -7 19 7 28 26 17 12 -7 12 -12 2 -22 -9 -9 -1 -17 41
-34 28 -13 60 -21 70 -18 10 3 17 0 17 -9 0 -7 12 -19 26 -26 15 -6 60 -34
102 -62 41 -28 85 -55 98 -59 13 -5 24 -14 24 -20 0 -6 33 -46 73 -88 40 -42
83 -93 96 -112 21 -32 20 -32 -11 5 -93 112 -207 215 -230 207 -5 -1 -8 3 -8
9 0 5 -4 7 -10 4 -5 -3 -10 -2 -10 3 0 6 -6 9 -12 9 -7 -1 -58 13 -113 32
-317 105 -673 64 -959 -109 -262 -158 -445 -407 -528 -719 -21 -82 -22 -84
-31 -51 -5 19 -16 39 -24 45 -17 12 -9 40 8 30 5 -4 9 2 9 12 0 10 13 55 29
100 22 61 26 84 17 94 -8 9 -7 11 5 6 12 -4 23 10 43 51 75 152 205 305 351
415 245 184 624 273 906 213 63 -13 165 -39 188 -47 25 -9 25 -8 6 6 -11 9
-31 19 -45 22 -14 4 -30 12 -37 18 -15 15 -193 75 -230 77 -15 1 -34 6 -42 12
-9 7 -87 11 -211 11 -177 0 -200 -2 -218 -18 -12 -11 -22 -14 -26 -8 -18 28
-279 -79 -351 -144 -20 -19 -42 -35 -47 -35 -4 0 -48 -39 -96 -87 -178 -179
-301 -412 -348 -662 -14 -77 -14 -85 0 -93 20 -11 21 -32 2 -25 -40 16 -32
-222 15 -423 29 -123 80 -245 102 -244 19 2 22 -7 7 -22 -7 -7 3 -32 31 -78
22 -37 39 -69 37 -72 -7 -6 -94 146 -124 216 -15 36 -35 90 -44 120 -13 41
-23 56 -39 58 -25 4 -27 15 -6 35 10 10 12 26 8 51 -5 33 -23 61 -23 37 0 -6
-7 -11 -15 -11 -8 0 -15 8 -15 18 0 26 11 34 27 21 10 -9 13 -6 13 17 0 44
-11 78 -20 64 -4 -7 -13 -10 -18 -6 -16 9 -2 38 14 32 11 -4 14 12 14 84 0
104 14 213 39 310 17 63 17 69 2 75 -14 6 -12 10 9 28 31 27 66 98 41 82 -14
-8 -22 10 -15 30 4 10 14 15 24 12 25 -6 46 39 28 60 -9 12 -9 16 3 24 8 5 19
7 24 5 6 -1 25 22 44 53 40 68 86 126 165 209 32 34 55 62 51 62 -16 0 49 55
89 75 22 11 41 27 44 37 5 20 33 33 42 19 6 -11 63 21 60 33 -1 4 1 12 3 19 3
9 7 9 17 0 9 -8 27 -4 77 18 84 37 209 74 303 89 41 7 78 18 83 26 8 13 37 8
48 -8 10 -16 78 2 72 18 -6 16 32 20 42 5z m539 -13 c-3 -4 -9 -8 -15 -8 -5 0
-9 4 -9 8 0 5 7 9 15 9 8 0 12 -4 9 -9z m-1424 -56 c0 -13 -12 -22 -22 -16
-10 6 -1 24 13 24 5 0 9 -4 9 -8z m1390 -2 c0 -5 -4 -10 -10 -10 -5 0 -10 5
-10 10 0 6 5 10 10 10 6 0 10 -4 10 -10z m-1234 -21 c8 -14 -18 -31 -30 -19
-9 9 0 30 14 30 5 0 12 -5 16 -11z m1308 -65 c9 -22 8 -24 -9 -24 -8 0 -15 9
-15 20 0 24 15 27 24 4z m206 12 c0 -3 -4 -8 -10 -11 -5 -3 -10 -1 -10 4 0 6
5 11 10 11 6 0 10 -2 10 -4z m-1094 -52 c-5 -13 -10 -14 -18 -6 -6 6 -8 18 -4
28 5 13 10 14 18 6 6 -6 8 -18 4 -28z m-146 10 c0 -9 -7 -14 -17 -12 -25 5
-28 28 -4 28 12 0 21 -6 21 -16z m1144 -20 c9 -22 8 -24 -9 -24 -8 0 -15 9
-15 20 0 24 15 27 24 4z m-1274 -30 c11 -12 10 -18 -3 -32 -16 -15 -18 -15
-34 0 -13 14 -14 20 -3 32 7 9 16 16 20 16 4 0 13 -7 20 -16z m-370 -30 c0 -8
-7 -14 -15 -14 -15 0 -21 21 -9 33 10 9 24 -2 24 -19z m200 -49 c0 -8 -4 -15
-9 -15 -13 0 -22 16 -14 24 11 11 23 6 23 -9z m-160 -5 c0 -5 -7 -10 -15 -10
-8 0 -15 5 -15 10 0 6 7 10 15 10 8 0 15 -4 15 -10z m-73 -112 c-57 -57 -115
-117 -128 -133 -13 -17 -21 -27 -17 -22 3 5 4 16 1 25 -4 9 -2 13 4 9 6 -4 23
10 39 31 33 44 184 192 196 192 5 0 -38 -46 -95 -102z m293 62 c0 -5 -4 -10
-10 -10 -5 0 -10 5 -10 10 0 6 5 10 10 10 6 0 10 -4 10 -10z m-150 -41 c-12
-21 -30 -17 -30 6 0 14 20 25 33 18 4 -2 2 -13 -3 -24z m1580 -36 c0 -8 -38
17 -51 33 -9 11 -2 9 19 -6 17 -13 32 -25 32 -27z m-1660 -43 c0 -5 -2 -10 -4
-10 -3 0 -8 5 -11 10 -3 6 -1 10 4 10 6 0 11 -4 11 -10z m-50 -31 c0 -5 -7 -9
-15 -9 -15 0 -20 12 -9 23 8 8 24 -1 24 -14z m110 -5 c0 -8 -7 -14 -15 -14
-15 0 -21 21 -9 33 10 9 24 -2 24 -19z m1771 9 c13 -16 12 -17 -3 -4 -10 7
-18 15 -18 17 0 8 8 3 21 -13z m246 1 c-3 -3 -12 -4 -19 -1 -8 3 -5 6 6 6 11
1 17 -2 13 -5z m-67 -34 c0 -5 -2 -10 -4 -10 -3 0 -8 5 -11 10 -3 6 -1 10 4
10 6 0 11 -4 11 -10z m-200 -15 c0 -8 -7 -15 -15 -15 -16 0 -20 12 -8 23 11
12 23 8 23 -8z m-1872 -38 c2 -12 -3 -17 -17 -17 -12 0 -21 6 -21 13 0 31 32
34 38 4z m1982 -1 c0 -8 -8 -13 -17 -11 -10 2 -20 4 -23 4 -7 2 23 21 33 21 4
0 7 -6 7 -14z m-45 -54 c-6 -6 -35 18 -35 29 0 5 9 1 20 -8 11 -9 17 -19 15
-21z m155 -1 c0 -23 -16 -36 -25 -21 -9 14 1 40 15 40 5 0 10 -9 10 -19z
m-100 -11 c6 -11 8 -20 6 -20 -3 0 -10 9 -16 20 -6 11 -8 20 -6 20 3 0 10 -9
16 -20z m-2278 -22 c-15 -15 -26 -4 -18 18 5 13 9 15 18 6 9 -9 9 -15 0 -24z
m208 -23 c15 -18 6 -45 -15 -45 -18 0 -30 24 -21 45 7 19 20 19 36 0z m2130 5
c0 -5 -2 -10 -4 -10 -3 0 -8 5 -11 10 -3 6 -1 10 4 10 6 0 11 -4 11 -10z
m-2488 -42 c-9 -9 -12 -7 -12 12 0 19 3 21 12 12 9 -9 9 -15 0 -24z m2430 7
c6 -29 -7 -34 -15 -6 -4 17 0 31 9 31 1 0 4 -11 6 -25z m161 -38 c-3 -4 -11
-3 -19 4 -11 9 -12 15 -2 26 10 13 13 12 19 -4 3 -10 4 -22 2 -26z m117 23 c0
-5 -4 -10 -9 -10 -6 0 -13 5 -16 10 -3 6 1 10 9 10 9 0 16 -4 16 -10z m-245
-38 c-3 -3 -11 0 -18 7 -9 10 -8 11 6 5 10 -3 15 -9 12 -12z m165 -68 c0 -8
-4 -14 -9 -14 -11 0 -22 26 -14 34 9 9 23 -3 23 -20z m-2378 -9 c0 -5 -5 -11
-11 -13 -6 -2 -11 4 -11 13 0 9 5 15 11 13 6 -2 11 -8 11 -13z m2259 -12 c-12
-20 -14 -14 -5 12 4 9 9 14 11 11 3 -2 0 -13 -6 -23z m10 -26 c-10 -9 -11 -8
-5 6 3 10 9 15 12 12 3 -3 0 -11 -7 -18z m-2466 -37 c-6 -9 -9 -9 -16 1 -10
17 0 34 13 21 6 -6 7 -16 3 -22z m2492 -17 c7 -28 14 -37 27 -35 12 2 17 -2
14 -15 -7 -35 -31 -18 -48 35 -9 28 -14 52 -10 52 5 0 12 -17 17 -37z m-2427
-4 c0 -5 -4 -9 -10 -9 -5 0 -10 7 -10 16 0 8 5 12 10 9 6 -3 10 -10 10 -16z
m110 -22 c0 -8 -3 -17 -7 -20 -9 -9 -34 13 -27 24 8 14 34 11 34 -4z m2337
-79 c-3 -8 -6 -5 -6 6 -1 11 2 17 5 13 3 -3 4 -12 1 -19z m73 -19 c0 -5 -7 -9
-15 -9 -15 0 -20 12 -9 23 8 8 24 -1 24 -14z m-64 -65 c-4 -16 -14 -24 -27
-24 -12 0 -19 5 -16 13 2 6 12 11 21 11 11 -1 16 7 17 30 1 18 3 23 6 13 3
-10 2 -29 -1 -43z m13 -159 l-6 -90 0 120 c-1 66 2 107 6 90 3 -16 4 -70 0
-120z m-2369 64 c0 -5 -9 -9 -20 -9 -19 0 -27 20 -13 33 7 8 33 -11 33 -24z
m2418 3 c10 -7 8 -14 -7 -31 l-20 -23 1 31 c1 33 5 36 26 23z m112 -10 c0 -13
-12 -22 -22 -16 -10 6 -1 24 13 24 5 0 9 -4 9 -8z m70 -13 c0 -5 -7 -9 -15 -9
-15 0 -20 12 -9 23 8 8 24 -1 24 -14z m-193 -61 c-3 -8 -6 -5 -6 6 -1 11 2 17
5 13 3 -3 4 -12 1 -19z m83 -26 c0 -10 -22 -32 -32 -32 -4 0 -8 9 -8 20 0 13
7 20 20 20 11 0 20 -4 20 -8z m-60 -32 c0 -5 -7 -10 -15 -10 -8 0 -15 5 -15
10 0 6 7 10 15 10 8 0 15 -4 15 -10z m-43 -47 c-3 -10 -5 -2 -5 17 0 19 2 27
5 18 2 -10 2 -26 0 -35z m-30 -33 c-6 -50 -4 -60 9 -60 10 0 14 -7 12 -22 -2
-15 -9 -22 -20 -22 -13 1 -21 -10 -28 -40 -6 -22 -13 -47 -15 -53 -3 -8 4 -13
15 -13 14 0 20 -7 20 -22 0 -19 -2 -20 -10 -8 -7 12 -10 12 -10 1 0 -7 -6 -11
-14 -8 -10 4 -21 -12 -37 -51 -32 -81 -77 -169 -89 -177 -6 -4 2 20 19 52 29
59 29 59 9 72 -16 10 -18 15 -9 24 10 9 15 8 26 -6 11 -16 16 -8 45 70 35 97
69 240 70 291 0 17 3 32 6 32 4 0 4 -27 1 -60z m329 13 c-10 -10 -19 5 -10 18
6 11 8 11 12 0 2 -7 1 -15 -2 -18z m-2891 -13 c-5 -8 -11 -8 -17 -2 -6 6 -7
16 -3 22 5 8 11 8 17 2 6 -6 7 -16 3 -22z m2612 -12 c-3 -8 -6 -5 -6 6 -1 11
2 17 5 13 3 -3 4 -12 1 -19z m76 6 c9 -9 -4 -34 -18 -34 -14 0 -27 25 -18 34
4 3 12 6 18 6 6 0 14 -3 18 -6z m-76 -46 c-3 -8 -6 -5 -6 6 -1 11 2 17 5 13 3
-3 4 -12 1 -19z m173 -23 c0 -8 -7 -15 -15 -15 -8 0 -15 7 -15 15 0 8 7 15 15
15 8 0 15 -7 15 -15z m-2590 -25 c0 -5 -4 -10 -9 -10 -6 0 -13 5 -16 10 -3 6
1 10 9 10 9 0 16 -4 16 -10z m-280 -21 c0 -5 -4 -9 -10 -9 -5 0 -10 7 -10 16
0 8 5 12 10 9 6 -3 10 -10 10 -16z m2745 1 c0 -7 -6 -15 -12 -17 -8 -3 -13 4
-13 17 0 13 5 20 13 18 6 -3 12 -11 12 -18z m-2425 -114 c-13 -13 -35 7 -25
24 5 8 11 8 21 -1 10 -8 12 -15 4 -23z m-110 -16 c0 -5 -4 -10 -10 -10 -5 0
-10 5 -10 10 0 6 5 10 10 10 6 0 10 -4 10 -10z m-62 -11 c-2 -6 -8 -10 -13
-10 -5 0 -11 4 -13 10 -2 6 4 11 13 11 9 0 15 -5 13 -11z m282 -23 c0 -3 -4
-8 -10 -11 -5 -3 -10 -1 -10 4 0 6 5 11 10 11 6 0 10 -2 10 -4z m2191 -57
c-10 -30 -31 -83 -47 -118 -25 -57 -29 -62 -37 -42 -6 11 -14 21 -19 21 -4 0
-8 9 -8 20 0 11 7 20 15 20 8 0 15 -6 15 -12 0 -7 16 15 36 50 23 41 33 69 29
82 -5 14 -2 20 9 20 9 0 16 5 16 12 0 6 2 9 5 6 3 -2 -3 -29 -14 -59z m7 -180
c-2 -6 -8 -10 -13 -10 -5 0 -11 4 -13 10 -2 6 4 11 13 11 9 0 15 -5 13 -11z
m-112 -55 c-7 -26 -34 -32 -54 -12 -17 17 -15 31 3 24 9 -3 22 5 32 21 15 23
18 24 21 9 2 -10 1 -28 -2 -42z m-2107 -11 c9 -8 10 -13 4 -13 -7 0 -22 15
-34 33 -16 23 -17 27 -3 12 10 -11 25 -26 33 -32z m2268 10 c-3 -3 -11 -2 -17
2 -8 5 -7 11 2 22 12 15 13 14 16 -1 2 -10 1 -20 -1 -23z m-289 -37 c-48 -62
-166 -186 -176 -186 -5 0 -16 -8 -26 -19 -14 -15 -14 -20 -3 -29 17 -15 114
63 208 168 42 47 70 71 78 66 9 -6 9 -11 0 -23 -10 -11 -10 -19 -2 -32 9 -14
7 -20 -8 -29 -12 -8 -20 -8 -24 -1 -7 10 -47 -33 -44 -48 4 -24 -2 -34 -19
-29 -12 4 -28 -4 -48 -25 -79 -83 -309 -226 -414 -258 -25 -7 -48 -18 -52 -24
-3 -6 -26 -12 -50 -14 -24 -2 -50 -6 -58 -10 -8 -3 -40 -8 -70 -10 -30 -2 -57
-7 -60 -11 -7 -9 -210 -11 -210 -2 0 4 -33 8 -72 9 -99 2 -163 15 -153 31 3 5
-5 6 -17 2 -14 -3 -19 -2 -14 6 10 17 -4 15 -25 -4 -15 -14 -19 -13 -45 11
-22 20 -35 25 -57 21 -22 -5 -30 -2 -33 12 -5 17 -55 48 -177 109 -37 18 -66
37 -63 42 3 5 -19 27 -49 50 -30 23 -54 45 -53 49 1 4 -4 25 -10 46 -13 43 -7
60 11 35 20 -27 140 -130 192 -165 33 -22 51 -30 56 -22 10 16 40 2 33 -17 -9
-22 144 -93 232 -107 110 -17 310 -4 434 27 106 27 233 80 321 135 27 16 49
26 49 22 0 -4 -22 -21 -50 -37 -27 -17 -50 -37 -51 -45 0 -9 -2 -10 -5 -3 -4
8 -19 4 -52 -12 -26 -13 -87 -37 -136 -53 -48 -17 -83 -33 -77 -37 14 -8 4
-25 -15 -25 -8 0 -14 7 -14 15 0 11 -7 14 -22 10 -13 -3 -58 -9 -102 -14 -43
-5 -83 -15 -90 -21 -14 -15 182 -8 287 10 60 11 67 14 67 35 0 35 20 42 42 15
l18 -23 63 23 c145 52 367 188 367 225 0 8 8 15 18 15 19 0 114 93 166 163 16
21 31 35 34 32 3 -2 -11 -25 -30 -49z m-1813 -95 c44 -47 68 -77 53 -68 -22
13 -28 14 -28 4 0 -7 34 -35 75 -62 41 -27 72 -51 70 -54 -15 -15 -226 152
-295 234 -27 31 -28 35 -7 16 27 -24 67 -38 67 -23 -1 4 -14 23 -30 42 -17 19
-30 39 -30 45 0 5 10 -3 22 -20 12 -16 58 -68 103 -114z m1645 93 c0 -10 -114
-125 -145 -147 -16 -12 8 18 55 65 90 91 90 91 90 82z m-1830 -104 c0 -5 -4
-10 -10 -10 -5 0 -10 5 -10 10 0 6 5 10 10 10 6 0 10 -4 10 -10z m2280 -44 c0
-8 -4 -17 -9 -20 -10 -7 -23 19 -14 28 11 11 23 6 23 -8z m-150 -21 c0 -8 -7
-15 -15 -15 -8 0 -15 7 -15 15 0 8 7 15 15 15 8 0 15 -7 15 -15z m-1680 -4 c0
-14 -18 -23 -30 -16 -6 4 -8 11 -5 16 8 12 35 12 35 0z m1248 -34 c2 -10 -3
-17 -12 -17 -10 0 -16 9 -16 21 0 24 23 21 28 -4z m-78 9 c0 -3 -4 -8 -10 -11
-5 -3 -10 -1 -10 4 0 6 5 11 10 11 6 0 10 -2 10 -4z m320 -46 c0 -5 -2 -10 -4
-10 -3 0 -8 5 -11 10 -3 6 -1 10 4 10 6 0 11 -4 11 -10z m-1690 -10 c0 -5 -4
-10 -10 -10 -5 0 -10 5 -10 10 0 6 5 10 10 10 6 0 10 -4 10 -10z m-50 -50 c0
-5 -2 -10 -4 -10 -3 0 -8 5 -11 10 -3 6 -1 10 4 10 6 0 11 -4 11 -10z m1870
-14 c0 -3 -4 -8 -10 -11 -5 -3 -10 -1 -10 4 0 6 5 11 10 11 6 0 10 -2 10 -4z
m-1005 -56 c0 -7 -6 -15 -12 -17 -8 -3 -13 4 -13 17 0 13 5 20 13 18 6 -3 12
-11 12 -18z m625 -40 c0 -5 -7 -10 -15 -10 -8 0 -15 5 -15 10 0 6 7 10 15 10
8 0 15 -4 15 -10z m20 -59 c0 -12 -20 -25 -27 -18 -7 7 6 27 18 27 5 0 9 -4 9
-9z m-770 -71 c0 -5 -4 -10 -10 -10 -5 0 -10 5 -10 10 0 6 5 10 10 10 6 0 10
-4 10 -10z m-280 -10 c0 -5 -7 -10 -15 -10 -8 0 -15 5 -15 10 0 6 7 10 15 10
8 0 15 -4 15 -10z m790 -25 c0 -8 -7 -15 -15 -15 -8 0 -15 7 -15 15 0 8 7 15
15 15 8 0 15 -7 15 -15z m-520 -35 c0 -5 -7 -10 -15 -10 -8 0 -15 5 -15 10 0
6 7 10 15 10 8 0 15 -4 15 -10z m658 -31 c-2 -6 -8 -10 -13 -10 -5 0 -11 4
-13 10 -2 6 4 11 13 11 9 0 15 -5 13 -11z m-853 -39 c3 -5 -1 -10 -10 -10 -9
0 -13 5 -10 10 3 6 8 10 10 10 2 0 7 -4 10 -10z"/>
<path d="M1825 1480 c10 -11 20 -20 23 -20 3 0 -3 9 -13 20 -10 11 -20 20 -23
20 -3 0 3 -9 13 -20z"/>
<path d="M3250 1455 c-8 -9 -31 -25 -51 -36 -21 -10 -43 -28 -49 -40 -7 -11
-19 -19 -28 -16 -21 4 -92 -29 -92 -44 0 -6 -8 -9 -17 -8 -10 2 -55 -9 -99
-24 -45 -15 -112 -34 -150 -41 -94 -19 -47 -20 58 -1 105 18 238 64 338 116
104 54 125 72 113 93 -9 16 -11 16 -23 1z"/>
<path d="M2345 1260 c11 -5 36 -8 55 -8 32 0 33 1 10 8 -14 4 -38 8 -55 8 -25
1 -27 -1 -10 -8z"/>
<path d="M1617 1627 c-7 -20 50 -74 63 -61 7 7 -1 21 -24 43 -25 25 -35 29
-39 18z"/>
</g>
</svg>
